<svg xmlns="http://www.w3.org/2000/svg" viewBox="0 0 24 24" role="img" aria-label="GitHub logo">
  <path fill="#181717" d="M12 .5C5.65.5.5 5.66.5 12.02c0 5.09 3.29 9.41 7.86 10.94.58.11.79-.25.79-.56 0-.28-.01-1.02-.02-2-3.2.7-3.88-1.38-3.88-1.38-.52-1.33-1.27-1.68-1.27-1.68-1.04-.71.08-.7.08-.7 1.15.08 1.75 1.18 1.75 1.18 1.02 1.75 2.68 1.24 3.33.95.1-.74.4-1.24.72-1.53-2.56-.29-5.25-1.28-5.25-5.7 0-1.26.45-2.29 1.18-3.1-.12-.29-.51-1.46.11-3.05 0 0 .96-.31 3.15 1.18a10.9 10.9 0 0 1 5.74 0c2.19-1.49 3.15-1.18 3.15-1.18.62 1.59.23 2.76.11 3.05.74.81 1.18 1.84 1.18 3.1 0 4.43-2.69 5.41-5.26 5.69.41.35.78 1.05.78 2.12 0 1.53-.01 2.76-.01 3.13 0 .31.21.68.8.56A11.53 11.53 0 0 0 23.5 12.02C23.5 5.66 18.35.5 12 .5z"/>
</svg>
